<?xml version="1.0" encoding="utf-8"?>
<!-- Generator: Adobe Illustrator 28.1.0, SVG Export Plug-In . SVG Version: 6.00 Build 0)  -->
<svg version="1.1" id="Layer_1" xmlns="http://www.w3.org/2000/svg" xmlns:xlink="http://www.w3.org/1999/xlink" x="0px" y="0px"
	 viewBox="0 0 512 512" style="enable-background:new 0 0 512 512;" xml:space="preserve">
<g>
	<path d="M253.7,414.6c-24.9,0-46.6-10.1-65.3-30.3c-18.7-20.2-31.9-53.2-39.6-99.1h-1.2c-2.3,23.7-6,45.3-11.1,64.7
		c-5.1,19.4-10.1,39.4-15.2,60h-49c7.8-24.1,16.2-51.6,25.4-82.5c9.1-30.9,17.8-66.5,25.9-107l-2.9-123H179l-2.9,123
		c8.9,51.3,20,87.6,33.2,108.7c13.2,21.2,28.2,31.8,44.9,31.8c22.2,0,40.4-12.5,54.8-37.6c14.4-25.1,26.4-59.4,36.2-102.9l-1.2-123
		h57.1l-3.5,123c6.2,45.9,13.5,84.9,21.9,117.2c8.4,32.3,15.1,56.4,20.1,72.3h-49.6c-5.4-22.5-10.1-43.8-14-63.8
		c-3.9-20-6.4-40.3-7.6-60.9h-1.2c-11.7,46.3-26.7,79.4-45.2,99.4C303.7,404.6,280.9,414.6,253.7,414.6z"/>
</g>
</svg>
